HIERARCHY
ROOT Hips
{
	OFFSET 0.00 0.00 0.00
	CHANNELS 6 Xposition Yposition Zposition Yrotation Xrotation Zrotation
	JOINT Spine
	{
		OFFSET	0.0000	9.2263	1.5771
		CHANNELS 3 Xrotation Yrotation Zrotation
		JOINT Spine1
		{
			OFFSET	0.0000	16.2540	-0.1656
			CHANNELS 3 Xrotation Yrotation Zrotation
			JOINT Spine2
			{
				OFFSET	0.0000	13.6396	-1.2923
				CHANNELS 3 Xrotation Yrotation Zrotation
				JOINT Neck
				{
					OFFSET	0.0000	13.8774	-4.3542
					CHANNELS 3 Xrotation Yrotation Zrotation
					JOINT Neck1
					{
						OFFSET	0.0000	4.3400	0.9269
						CHANNELS 3 Xrotation Yrotation Zrotation
						JOINT Head
						{
							OFFSET	0.0000	4.0266	0.8585
							CHANNELS 3 Xrotation Yrotation Zrotation
							End Site
							{
								OFFSET 0.0000 23.0297 0.1231
							}
						}
					}
				}
				JOINT LeftShoulder
				{
					OFFSET	6.1442	10.1870	-3.7932
					CHANNELS 3 Zrotation Xrotation Yrotation
					JOINT LeftArm
					{
						OFFSET	12.3191	-1.1130	-1.7935
						CHANNELS 3 Zrotation Xrotation Yrotation
						JOINT LeftForeArm
						{
							OFFSET	27.6870	0.0000	0.0000
							CHANNELS 3 Xrotation Zrotation Yrotation
							JOINT LeftHand
							{
								OFFSET	27.8738	0.0000	0.0000
								CHANNELS 3 Zrotation Yrotation Xrotation
								JOINT LeftHandThumb1
								{
									OFFSET	2.3785	-1.0029	2.6209
									CHANNELS 3 Zrotation Xrotation Yrotation
									JOINT LeftHandThumb2
									{
										OFFSET	3.3624	-1.0029	2.8398
										CHANNELS 3 Zrotation Xrotation Yrotation
										JOINT LeftHandThumb3
										{
											OFFSET	4.5018	-1.3445	2.1783
											CHANNELS 3 Zrotation Xrotation Yrotation
											End Site
											{
												OFFSET 2.6000 -1.0000 1.0000
											}
										}
									}
								}
								JOINT LeftHandMiddle1
								{
									OFFSET	10.4639	0.6148	0.4298
									CHANNELS 3 Zrotation Xrotation Yrotation
									JOINT LeftHandMiddle2
									{
										OFFSET	5.7921	0.0000	0.0000
										CHANNELS 3 Zrotation Xrotation Yrotation
										JOINT LeftHandMiddle3
										{
											OFFSET	3.7132	0.0000	0.0000
											CHANNELS 3 Zrotation Xrotation Yrotation
											End Site
											{
												OFFSET 2.3000 0.0000 0.0000
											}
										}
									}
								}
								JOINT LeftHandIndex1
								{
									OFFSET	10.3945	0.6148	2.7055
									CHANNELS 3 Zrotation Xrotation Yrotation
									JOINT LeftHandIndex2
									{
										OFFSET	5.5493	0.0000	0.0000
										CHANNELS 3 Zrotation Xrotation Yrotation
										JOINT LeftHandIndex3
										{
											OFFSET	3.3911	0.0000	0.0000
											CHANNELS 3 Zrotation Xrotation Yrotation
											End Site
											{
												OFFSET 2.5000 0.0000 0.0000
											}
										}
									}
								}
								JOINT LeftHandRing1
								{
									OFFSET	10.3252	0.3211	-1.8755
									CHANNELS 3 Zrotation Xrotation Yrotation
									JOINT LeftHandRing2
									{
										OFFSET	5.4452	0.0000	0.0000
										CHANNELS 3 Zrotation Xrotation Yrotation
										JOINT LeftHandRing3
										{
											OFFSET	3.7132	0.0000	0.0000
											CHANNELS 3 Zrotation Xrotation Yrotation
											End Site
											{
												OFFSET 2.0000 0.0000 0.0000
											}
										}
									}
								}
								JOINT LeftHandPinky1
								{
									OFFSET	10.0130	-0.0783	-3.9671
									CHANNELS 3 Zrotation Xrotation Yrotation
									JOINT LeftHandPinky2
									{
										OFFSET	3.6763	0.0000	0.0000
										CHANNELS 3 Zrotation Xrotation Yrotation
										JOINT LeftHandPinky3
										{
											OFFSET	2.8113	0.0000	0.0000
											CHANNELS 3 Zrotation Xrotation Yrotation
											End Site
											{
												OFFSET 2.9000 0.0000 0.0000
											}
										}
									}
								}
							}
						}
					}
				}
				JOINT RightShoulder
				{
					OFFSET	-6.1402	10.1870	-3.7932
					CHANNELS 3 Zrotation Xrotation Yrotation
					JOINT RightArm
					{
						OFFSET	-12.3231	-1.1130	-1.7935
						CHANNELS 3 Zrotation Xrotation Yrotation
						JOINT RightForeArm
						{
							OFFSET	-27.6870	0.0000	0.0000
							CHANNELS 3 Xrotation Zrotation Yrotation
							JOINT RightHand
							{
								OFFSET	-27.8738	0.0000	0.0000
								CHANNELS 3 Zrotation Yrotation Xrotation
								JOINT RightHandThumb1
								{
									OFFSET	-2.5178	-0.9367	2.5137
									CHANNELS 3 Zrotation Xrotation Yrotation
									JOINT RightHandThumb2
									{
										OFFSET	-3.2638	-1.0870	2.9669
										CHANNELS 3 Zrotation Xrotation Yrotation
										JOINT RightHandThumb3
										{
											OFFSET	-4.4165	-1.3703	2.1350
											CHANNELS 3 Zrotation Xrotation Yrotation
											End Site
											{
												OFFSET -2.6000 -1.0000 1.0000
											}
										}
									}
								}
								JOINT RightHandIndex1
								{
									OFFSET	-10.4665	0.4896	2.7120
									CHANNELS 3 Zrotation Xrotation Yrotation
									JOINT RightHandIndex2
									{
										OFFSET	-5.3768	0.0000	0.0000
										CHANNELS 3 Zrotation Xrotation Yrotation
										JOINT RightHandIndex3
										{
											OFFSET	-3.3855	0.0000	0.0000
											CHANNELS 3 Zrotation Xrotation Yrotation
											End Site
											{
												OFFSET -2.6000 0.0000 0.0000
											}
										}
									}
								}
								JOINT RightHandMiddle1
								{
									OFFSET	-10.7596	0.4896	0.4278
									CHANNELS 3 Zrotation Xrotation Yrotation
									JOINT RightHandMiddle2
									{
										OFFSET	-5.6168	0.0000	0.0000
										CHANNELS 3 Zrotation Xrotation Yrotation
										JOINT RightHandMiddle3
										{
											OFFSET	-3.7364	0.0000	0.0000
											CHANNELS 3 Zrotation Xrotation Yrotation
											End Site
											{
												OFFSET -2.3000 0.0000 0.0000
											}
										}
									}
								}
								JOINT RightHandRing1
								{
									OFFSET	-10.4702	0.3879	-1.9363
									CHANNELS 3 Zrotation Xrotation Yrotation
									JOINT RightHandRing2
									{
										OFFSET	-5.4013	0.0000	0.0000
										CHANNELS 3 Zrotation Xrotation Yrotation
										JOINT RightHandRing3
										{
											OFFSET	-3.3916	0.0000	0.0000
											CHANNELS 3 Zrotation Xrotation Yrotation
											End Site
											{
												OFFSET -2.2000 0.0000 0.0000
											}
										}
									}
								}
								JOINT RightHandPinky1
								{
									OFFSET	-9.9715	-0.1191	-3.9540
									CHANNELS 3 Zrotation Xrotation Yrotation
									JOINT RightHandPinky2
									{
										OFFSET	-3.6528	0.0000	0.0000
										CHANNELS 3 Zrotation Xrotation Yrotation
										JOINT RightHandPinky3
										{
											OFFSET	-2.7820	0.0000	0.0000
											CHANNELS 3 Zrotation Xrotation Yrotation
											End Site
											{
												OFFSET -2.9000 0.0000 0.0000
											}
										}
									}
								}
							}
						}
					}
				}
			}
		}
	}
	JOINT LeftUpLeg
	{
		OFFSET	9.6338	-3.2733	0.0000
		CHANNELS 3 Xrotation Yrotation Zrotation
		JOINT LeftLeg
		{
			OFFSET	0.0000	-41.7300	-1.7300
			CHANNELS 3 Xrotation Yrotation Zrotation
			JOINT LeftFoot
			{
				OFFSET	0.0126	-39.1900	-0.8477
				CHANNELS 3 Xrotation Yrotation Zrotation
				JOINT LeftToeBase
				{
					OFFSET	-0.1833	-12.1931	8.2823
					CHANNELS 3 Xrotation Yrotation Zrotation
					End Site
					{
						OFFSET 0.0000 0.0000 10.1681
					}
				}
			}
		}
	}
	JOINT RightUpLeg
	{
		OFFSET	-9.6338	-3.2733	0.0000
		CHANNELS 3 Xrotation Yrotation Zrotation
		JOINT RightLeg
		{
			OFFSET	0.0000	-41.7300	-1.7300
			CHANNELS 3 Xrotation Yrotation Zrotation
			JOINT RightFoot
			{
				OFFSET	0.0126	-39.1900	-0.8477
				CHANNELS 3 Xrotation Yrotation Zrotation
				JOINT RightToeBase
				{
					OFFSET	-0.1833	-12.1931	8.2823
					CHANNELS 3 Xrotation Yrotation Zrotation
					End Site
					{
						OFFSET 0.0032 0.0000 10.1681
					}
				}
			}
		}
	}
}
MOTION
Frames: 7
Frame Time: 0.0333333
0.4040 87.7185 -9.2051 12.4989 42.0209 13.9376 6.1213 -0.4588 0.0095 12.2457 -0.5564 0.3520 12.2457 -0.5564 0.3520 -3.8171 0.4096 -0.9613 -0.0000 0.0000 -0.0000 -19.3160 -0.7980 3.0398 -3.1225 14.5143 -29.4567 -36.8050 -26.2666 -39.9846 0.1392 1.3359 -84.0626 7.7287 -13.7396 -61.4996 -11.9513 30.8290 -9.4853 0.8303 -3.9974 -8.2937 3.6508 -3.2616 -4.2510 -38.8364 -7.5796 2.5475 -31.8548 1.2186 -4.5358 0.0000 0.0000 0.0000 -18.8864 -7.8542 6.9251 -45.7003 9.6683 -1.2335 -0.0000 0.0000 -0.0000 -38.4522 5.2928 -4.7841 -36.4102 -4.0821 -11.0927 -0.0000 -0.0000 0.0000 -31.2500 -0.0373 -9.1656 -37.3411 -5.6383 -10.8496 0.0000 -0.0000 -0.0000 6.6450 2.2971 4.7504 54.4199 -35.8349 43.8330 0.1599 -0.9633 80.5873 -15.8907 12.8731 48.8334 15.3262 25.9659 -0.7510 -39.7177 1.3303 9.3730 -3.1411 -3.0303 4.2393 -14.4243 -5.2990 -2.2825 8.5559 -0.2307 -0.0271 -0.0000 0.0000 -0.0000 -13.6340 1.1495 -6.9522 15.5475 0.2225 2.0697 0.0000 0.0000 0.0000 -10.7966 0.3536 -13.3458 8.4895 -0.0434 0.1246 0.0000 -0.0000 0.0000 3.8833 2.2707 -4.7448 5.5642 -0.0180 0.9156 -0.0000 -0.0000 -0.0000 -70.3818 -2.6057 3.8039 46.0545 -0.2519 -1.4480 -2.2988 -4.7342 -18.7438 -13.1458 -0.3952 5.8998 -76.8828 17.1590 -20.7712 37.4123 -0.0346 1.3236 14.1251 -43.5297 22.7140 4.0564 1.7714 -2.1234 
0.4016 87.7757 -9.1961 12.5115 42.0747 13.8909 6.1010 -0.4622 -0.0075 12.2049 -0.5652 0.3174 12.2049 -0.5652 0.3174 -3.8344 0.3225 -0.9932 -0.0000 0.0000 -0.0000 -19.4694 -0.9361 3.0408 -3.7450 14.7205 -29.2782 -36.1365 -26.3316 -40.1484 0.1401 1.3420 -84.0497 7.2937 -14.0471 -62.1500 -11.9513 30.8290 -9.4853 0.8303 -3.9974 -8.2936 3.6508 -3.2616 -4.2510 -38.8364 -7.5796 2.5475 -31.8548 1.2186 -4.5358 0.0000 -0.0000 0.0000 -18.8864 -7.8542 6.9251 -45.7003 9.6684 -1.2335 0.0000 -0.0000 0.0000 -38.4522 5.2928 -4.7841 -36.4102 -4.0821 -11.0927 0.0000 0.0000 0.0000 -31.2500 -0.0373 -9.1657 -37.3411 -5.6383 -10.8496 0.0000 0.0000 -0.0000 5.7153 2.2210 4.2107 55.6672 -35.2488 44.2841 0.1641 -0.9618 80.3350 -16.0195 13.3092 48.7991 15.3262 25.9659 -0.7510 -39.7177 1.3303 9.3730 -3.1411 -3.0303 4.2392 -14.4171 -5.3050 -2.2693 8.5559 -0.2307 -0.0271 0.0000 -0.0000 0.0000 -13.6260 1.1485 -6.9530 15.5491 0.2226 2.0699 0.0000 -0.0000 -0.0000 -10.8053 0.3577 -13.3497 8.4882 -0.0434 0.1243 0.0000 -0.0000 -0.0000 3.8914 2.2723 -4.7625 5.6384 -0.0168 0.9299 -0.0000 0.0000 -0.0000 -70.3396 -2.6689 3.8119 45.8639 -0.2499 -1.4424 -2.2037 -4.7070 -18.7494 -13.1489 -0.3739 5.8986 -76.7952 17.0750 -20.7646 37.1621 -0.0418 1.3149 14.2349 -43.5616 22.7179 4.0566 1.7803 -2.1240 
0.4044 87.8294 -9.1528 12.5173 42.1303 13.8400 6.0931 -0.4713 -0.0096 12.1892 -0.5841 0.3131 12.1892 -0.5841 0.3131 -3.8220 0.3978 -0.9782 -0.0000 0.0000 -0.0000 -20.0934 -0.6601 2.5977 -4.0026 14.7798 -29.0879 -35.9592 -26.2629 -40.4060 0.1460 1.3457 -83.8193 6.9025 -14.3300 -62.5644 -11.9512 30.8290 -9.4853 0.8303 -3.9974 -8.2936 3.6508 -3.2616 -4.2510 -38.8364 -7.5796 2.5475 -31.8548 1.2186 -4.5358 -0.0000 -0.0000 0.0000 -18.8864 -7.8542 6.9251 -45.7003 9.6683 -1.2335 -0.0000 -0.0000 -0.0000 -38.4521 5.2928 -4.7841 -36.4102 -4.0821 -11.0927 -0.0000 0.0000 -0.0000 -31.2500 -0.0373 -9.1656 -37.3411 -5.6382 -10.8496 -0.0000 -0.0000 -0.0000 4.9414 2.2411 3.8780 56.6059 -34.7740 44.5524 0.1709 -0.9612 79.9310 -16.2146 13.7777 48.6179 15.3262 25.9659 -0.7510 -39.7177 1.3303 9.3730 -3.1411 -3.0303 4.2393 -14.4110 -5.3098 -2.2588 8.5559 -0.2307 -0.0271 0.0000 0.0000 -0.0000 -13.6222 1.1480 -6.9543 15.5535 0.2228 2.0706 -0.0000 0.0000 0.0000 -10.8165 0.3631 -13.3545 8.4844 -0.0434 0.1236 -0.0000 -0.0000 0.0000 3.8964 2.2739 -4.7780 5.6956 -0.0159 0.9410 0.0000 0.0000 0.0000 -70.2815 -2.7622 3.8091 45.6982 -0.2470 -1.4375 -2.1493 -4.6462 -18.7651 -13.1512 -0.3556 5.8976 -76.7281 16.9508 -20.7666 36.9650 -0.0461 1.3081 14.2709 -43.5520 22.6881 4.0568 1.7846 -2.1243 
0.4105 87.8755 -9.0780 12.4813 42.1422 13.7913 6.0514 -0.4639 -0.0524 12.1055 -0.5754 0.2266 12.1055 -0.5754 0.2266 -3.7506 1.4542 -0.6514 -0.0000 0.0000 -0.0000 -21.6689 1.2873 1.1665 -3.4200 14.5212 -28.9030 -36.7906 -25.7595 -40.9337 0.1633 1.3462 -83.0923 6.5915 -14.1335 -62.1822 -11.9512 30.8290 -9.4853 0.8303 -3.9974 -8.2936 3.6508 -3.2616 -4.2510 -38.8364 -7.5796 2.5475 -31.8548 1.2186 -4.5358 0.0000 -0.0000 -0.0000 -18.8864 -7.8542 6.9251 -45.7003 9.6684 -1.2335 -0.0000 0.0000 -0.0000 -38.4521 5.2928 -4.7841 -36.4102 -4.0821 -11.0927 -0.0000 0.0000 0.0000 -31.2500 -0.0373 -9.1657 -37.3411 -5.6383 -10.8496 -0.0000 -0.0000 -0.0000 4.7693 2.3336 4.1061 56.4333 -34.6865 44.1351 0.1839 -0.9684 79.2619 -16.5364 14.2089 48.1626 15.3262 25.9659 -0.7511 -39.7177 1.3303 9.3730 -3.1411 -3.0303 4.2392 -14.4059 -5.3134 -2.2508 8.5559 -0.2307 -0.0271 0.0000 -0.0000 0.0000 -13.6217 1.1479 -6.9560 15.5599 0.2230 2.0715 0.0000 -0.0000 0.0000 -10.8294 0.3693 -13.3597 8.4787 -0.0434 0.1226 -0.0000 0.0000 -0.0000 3.8986 2.2754 -4.7911 5.7375 -0.0153 0.9490 -0.0000 0.0000 0.0000 -70.1633 -2.8077 3.8199 45.5725 -0.2496 -1.4340 -2.1449 -4.5933 -18.7741 -13.1536 -0.3397 5.8969 -76.6761 16.7592 -20.7853 36.8468 -0.0512 1.3038 14.1896 -43.4313 22.5713 4.0568 1.7847 -2.1243 
0.4175 87.9090 -8.9740 12.3716 42.0507 13.7582 5.9283 -0.4141 -0.1966 11.8584 -0.4942 -0.0651 11.8584 -0.4942 -0.0651 -3.6329 4.0269 0.1771 -0.0000 0.0000 -0.0000 -23.6015 5.5704 -0.8576 -1.4219 13.7496 -28.7242 -39.2488 -24.4890 -42.0052 0.1988 1.3420 -81.5832 6.3947 -12.9689 -60.4105 -11.9512 30.8290 -9.4853 0.8302 -3.9974 -8.2937 3.6508 -3.2616 -4.2510 -38.8364 -7.5796 2.5475 -31.8548 1.2185 -4.5358 -0.0000 0.0000 -0.0000 -18.8864 -7.8542 6.9251 -45.7003 9.6684 -1.2335 -0.0000 -0.0000 0.0000 -38.4521 5.2928 -4.7841 -36.4102 -4.0821 -11.0927 -0.0000 0.0000 -0.0000 -31.2500 -0.0373 -9.1657 -37.3411 -5.6383 -10.8496 -0.0000 -0.0000 0.0000 5.7077 2.5011 5.2742 54.2127 -35.2162 42.4619 0.2073 -0.9918 78.2097 -17.0719 14.5326 47.2930 15.3262 25.9659 -0.7510 -39.7177 1.3303 9.3730 -3.1411 -3.0303 4.2393 -14.4016 -5.3159 -2.2451 8.5559 -0.2307 -0.0271 0.0000 -0.0000 -0.0000 -13.6239 1.1481 -6.9579 15.5675 0.2233 2.0726 -0.0000 0.0000 0.0000 -10.8431 0.3760 -13.3650 8.4714 -0.0434 0.1212 -0.0000 0.0000 -0.0000 3.8987 2.2768 -4.8017 5.7656 -0.0149 0.9544 0.0000 0.0000 -0.0000 -69.9267 -2.7235 3.8620 45.5004 -0.2647 -1.4326 -2.1994 -4.5898 -18.7592 -13.1556 -0.3256 5.8959 -76.6241 16.4751 -20.8363 36.8434 -0.0613 1.3032 13.9427 -43.1256 22.3140 4.0567 1.7813 -2.1240 
0.4217 87.9245 -8.8448 12.3328 41.6692 13.8603 5.7404 -0.2944 -0.4568 11.4813 -0.2861 -0.5927 11.4813 -0.2861 -0.5927 -3.5764 8.7529 1.7084 -0.0000 0.0000 -0.0000 -24.4362 12.6487 -2.9614 2.7028 12.1814 -28.5116 -43.1246 -21.8670 -43.9032 0.2693 1.3489 -78.7186 6.2913 -10.9129 -57.9968 -11.9512 30.8290 -9.4853 0.8302 -3.9975 -8.2936 3.6508 -3.2616 -4.2510 -38.8364 -7.5796 2.5475 -31.8548 1.2186 -4.5358 0.0000 0.0000 -0.0000 -18.8864 -7.8542 6.9251 -45.7003 9.6684 -1.2335 -0.0000 0.0000 -0.0000 -38.4522 5.2928 -4.7841 -36.4102 -4.0821 -11.0927 -0.0000 -0.0000 0.0000 -31.2501 -0.0374 -9.1656 -37.3411 -5.6382 -10.8496 0.0000 -0.0000 0.0000 7.9608 2.7673 7.2552 49.6967 -36.1115 39.1527 0.2484 -1.0290 76.4422 -18.0139 15.1666 46.0338 15.3262 25.9659 -0.7511 -39.7177 1.3303 9.3730 -3.1411 -3.0303 4.2392 -14.3983 -5.3174 -2.2415 8.5559 -0.2307 -0.0271 -0.0000 0.0000 -0.0000 -13.6281 1.1486 -6.9600 15.5754 0.2235 2.0737 -0.0000 0.0000 0.0000 -10.8566 0.3827 -13.3701 8.4630 -0.0434 0.1196 -0.0000 0.0000 -0.0000 3.8970 2.2780 -4.8097 5.7814 -0.0147 0.9574 -0.0000 0.0000 -0.0000 -69.4169 -2.4936 3.8089 45.4435 -0.2952 -1.4325 -2.2813 -4.6811 -18.7062 -13.1576 -0.3129 5.8951 -76.4036 16.2006 -21.0460 37.1075 -0.0781 1.3112 13.4986 -42.7099 21.9948 4.0570 1.7746 -2.1236 
0.4203 87.9271 -8.6986 12.6381 41.0099 14.1907 5.5379 -0.1484 -0.7386 11.0762 -0.0261 -1.1640 11.0761 -0.0261 -1.1640 -3.7938 14.5286 3.5638 -0.0000 0.0000 -0.0000 -22.6824 21.1763 -5.1502 7.8729 10.2868 -28.0982 -46.8261 -18.0403 -46.7582 0.3868 1.3720 -74.2649 6.2163 -9.1180 -56.6562 -11.9512 30.8290 -9.4853 0.8303 -3.9975 -8.2937 3.6508 -3.2616 -4.2510 -38.8364 -7.5796 2.5475 -31.8548 1.2186 -4.5358 0.0000 -0.0000 0.0000 -18.8864 -7.8542 6.9251 -45.7003 9.6684 -1.2335 -0.0000 0.0000 0.0000 -38.4521 5.2928 -4.7841 -36.4102 -4.0821 -11.0927 0.0000 0.0000 0.0000 -31.2500 -0.0373 -9.1657 -37.3411 -5.6383 -10.8496 0.0000 -0.0000 0.0000 10.2540 3.0608 9.0362 44.9805 -36.3633 35.2451 0.3118 -1.0666 73.7156 -19.4027 16.7074 44.8262 15.3262 25.9659 -0.7510 -39.7177 1.3303 9.3730 -3.1411 -3.0303 4.2393 -14.3957 -5.3181 -2.2399 8.5559 -0.2307 -0.0271 0.0000 -0.0000 -0.0000 -13.6334 1.1493 -6.9623 15.5829 0.2238 2.0748 0.0000 -0.0000 0.0000 -10.8692 0.3889 -13.3746 8.4539 -0.0434 0.1178 0.0000 -0.0000 0.0000 3.8940 2.2790 -4.8149 5.7863 -0.0147 0.9583 -0.0000 0.0000 0.0000 -68.6929 -2.2892 3.5008 45.3163 -0.3309 -1.4305 -2.3130 -4.8606 -18.6273 -13.1603 -0.3011 5.8943 -75.9617 16.0013 -21.5387 37.6892 -0.0931 1.3299 12.9174 -42.3820 21.7668 4.0571 1.7654 -2.1230 
